#!OML:ASF I:\Actors\actors\Patient Classification 2\Patient 1\Session 1\actor1.ASF
:FULLY-SPECIFIED
:DEGREES
422
root -0.857292 18.2865 4.79167 10.5692 2.52217 -0.52373
lowerback 23.6852 2.24517 -3.39184
upperback 5.05517 1.96994 -1.30009
thorax -7.68221 0.998229 -0.0661362
lowerneck -26.66 -6.10986 -4.17114
upperneck 14.0506 -8.45049 7.98451
head 9.2873 -3.25846 2.13343
rclavicle -5.36719e-015 9.93923e-015
rhumerus 10.9317 21.2089 -86.5267
rradius 51.4072
rwrist -38.7856
rhand -8.88823 -67.8287
rfingers 7.12502
rthumb 17.054 457.1
lclavicle -5.36719e-015 9.93923e-015
lhumerus 4.82659 -29.2894 97.1168
lradius 64.735
lwrist 71.7075
lhand -32.1023 -3.55967
lfingers 7.12502
lthumb -5.34751 26.3529
rfemur 4.49554 -1.47898 15.3568
rtibia -20.9589
rfoot -3.40393 -20.3617
rtoes 1.84061
lfemur 1.6286 -2.57984 -12.1208
ltibia -17.582
lfoot 4.53418 14.5065
ltoes -18.1319
423
root -0.853841 18.286 4.82587 10.0366 2.36305 -0.469307
lowerback 23.2964 2.29375 -3.35169
upperback 4.99091 2.06643 -1.22639
thorax -7.55622 1.04421 -0.025929
lowerneck -27.2579 -6.17445 -4.20972
upperneck 15.2126 -8.55695 7.78526
head 9.79456 -3.28555 2.04162
rclavicle -1.82882e-014 1.66979e-014
rhumerus 11.2684 21.5848 -86.0614
rradius 50.6105
rwrist -39.0976
rhand -8.88 -68.2116
rfingers 7.12502
rthumb 17.0619 457.482
lclavicle -1.82882e-014 1.66979e-014
lhumerus 5.11204 -29.5663 97.0053
lradius 64.3023
lwrist 72.537
lhand -32.5158 -3.0063
lfingers 7.12502
lthumb -5.74675 26.8958
rfemur 5.01978 -1.30341 15.2505
rtibia -20.6259
rfoot -3.64762 -20.173
rtoes 1.51313
lfemur 2.19125 -2.59124 -12.2449
ltibia -17.186
lfoot 4.08033 14.4833
ltoes -18.0619
424
root -0.854217 18.287 4.86241 9.45772 2.16066 -0.442222
lowerback 22.8813 2.25245 -3.55787
upperback 4.76544 1.98129 -1.20229
thorax -7.5943 1.01036 0.150466
lowerneck -27.132 -5.86302 -3.60485
upperneck 16.3333 -8.34938 7.33035
head 10.1121 -3.1798 1.82138
rclavicle -2.50469e-014 5.1684e-015
rhumerus 11.3514 22.378 -85.9734
rradius 49.9277
rwrist -39.4677
rhand -8.43075 -68.7817
rfingers 7.12502
rthumb 17.4943 458.015
lclavicle -2.50469e-014 5.1684e-015
lhumerus 4.9023 -29.4324 96.6791
lradius 64.1595
lwrist 73.2389
lhand -32.8138 -2.42586
lfingers 7.12502
lthumb -6.03445 27.4682
rfemur 5.60177 -1.01029 15.18
rtibia -20.296
rfoot -3.99403 -20.0031
rtoes 1.54511
lfemur 2.82575 -2.5806 -12.3299
ltibia -16.784
lfoot 3.62717 14.5014
ltoes -18.0097
425
root -0.852953 18.2891 4.89822 8.85869 1.99895 -0.359553
lowerback 22.5931 2.24371 -3.6262
upperback 4.57757 1.96657 -1.17122
thorax -7.65373 1.00755 0.231973
lowerneck -27.1642 -5.74762 -3.45052
upperneck 17.5793 -8.3149 7.17908
head 10.5544 -3.13661 1.74784
rclavicle -1.74931e-014 2.74323e-014
rhumerus 11.6428 22.9006 -85.602
rradius 49.4016
rwrist -39.8191
rhand -7.88801 -69.6343
rfingers 7.12502
rthumb 18.0166 458.82
lclavicle -1.74931e-014 2.74323e-014
lhumerus 4.92768 -29.4978 96.3991
lradius 64.0913
lwrist 73.6299
lhand -32.9806 -1.93106
lfingers 7.12502
lthumb -6.19547 27.9583
rfemur 6.19632 -0.684563 15.0497
rtibia -19.9144
rfoot -4.53672 -19.8544
rtoes 2.04562
lfemur 3.4651 -2.64117 -12.4761
ltibia -16.3687
lfoot 3.1907 14.5245
ltoes -18.0548
426
root -0.842108 18.2836 4.92754 8.28142 1.8608 -0.288494
lowerback 22.3891 2.21123 -3.47096
upperback 4.40307 1.96845 -1.14713
thorax -7.73527 1.00791 0.171559
lowerneck -27.2035 -5.71088 -3.43348
upperneck 18.8505 -8.34127 7.04539
head 11.0247 -3.12769 1.69219
rclavicle 3.10104e-014 1.59028e-015
rhumerus 12.0757 23.2734 -85.0727
rradius 49.1905
rwrist -40.1937
rhand -12.357 -68.575
rfingers 7.12502
rthumb 13.7129 458.103
lclavicle 3.10104e-014 1.59028e-015
lhumerus 5.25717 -29.5517 96.1663
lradius 63.9457
lwrist 73.4981
lhand -32.7925 -1.47479
lfingers 7.12502
lthumb -6.01386 28.4199
rfemur 6.71865 -0.553723 14.9169
rtibia -19.5089
rfoot -4.95297 -19.5861
rtoes 2.33732
lfemur 4.04396 -2.86917 -12.6285
ltibia -15.9394
lfoot 2.68976 14.6676
ltoes -17.8145
427
root -0.824787 18.2831 4.95185 7.76456 1.62229 -0.258848
lowerback 22.1913 2.20193 -3.18886
upperback 4.203 2.02602 -1.1442
thorax -7.84439 1.03167 -0.00079105
lowerneck -26.9996 -5.60572 -3.23113
upperneck 19.9241 -8.2657 6.66242
head 11.3564 -3.10377 1.53753
rclavicle 2.80286e-014 -3.85642e-014
rhumerus 12.5717 23.4843 -84.5398
rradius 49.2944
rwrist -40.4283
rhand -13.7813 -67.9342
rfingers 7.12502
rthumb 12.3399 457.55
lclavicle 2.80286e-014 -3.85642e-014
lhumerus 5.67555 -29.5364 96.0313
lradius 63.8798
lwrist 73.0152
lhand -32.3659 -1.07077
lfingers 7.12502
lthumb -5.60205 28.8352
rfemur 7.10794 -0.578541 14.806
rtibia -19.1085
rfoot -5.08428 -19.1621
rtoes 2.12161
lfemur 4.54995 -3.2419 -12.7611
ltibia -15.4888
lfoot 2.07457 15.0271
ltoes -17.4589
428
root -0.816844 18.2833 4.97775 7.29494 1.39039 -0.225091
lowerback 21.9607 2.19317 -2.98109
upperback 4.00861 2.06728 -1.15327
thorax -7.93058 1.04852 -0.1379
lowerneck -26.6132 -5.45504 -3.06775
upperneck 20.7932 -8.1332 6.42472
head 11.5887 -3.04855 1.45492
rclavicle -1.98785e-015 -1.07344e-014
rhumerus 13.233 22.9536 -84.3186
rradius 49.5571
rwrist -38.5367
rhand -10.387 -69.1024
rfingers 7.12502
rthumb 15.611 458.492
lclavicle -1.98785e-015 -1.07344e-014
lhumerus 6.18749 -29.5397 95.7509
lradius 64.0711
lwrist 72.626
lhand -32.1144 -0.902796
lfingers 7.12502
lthumb -5.35918 29.0094
rfemur 7.50017 -0.433256 14.7178
rtibia -18.7605
rfoot -5.33401 -18.8963
rtoes 1.96651
lfemur 5.03423 -3.5435 -12.8623
ltibia -15.0818
lfoot 1.47234 15.3363
ltoes -17.1661
429
root -0.818182 18.2837 5.00408 6.91393 1.23348 -0.176745
lowerback 21.6826 2.14647 -2.94945
upperback 3.8398 2.02402 -1.13345
thorax -7.96791 1.0291 -0.117113
lowerneck -26.2893 -5.28482 -2.94168
upperneck 21.5751 -7.9943 6.35401
head 11.8124 -2.972 1.44035
rclavicle 3.12092e-014 -3.37934e-014
rhumerus 14.0109 22.7618 -84.1327
rradius 49.9636
rwrist -37.7659
rhand -9.45916 -69.7127
rfingers 7.12502
rthumb 16.5044 459.031
lclavicle 3.12092e-014 -3.37934e-014
lhumerus 6.83149 -29.4008 95.2756
lradius 64.5024
lwrist 72.4682
lhand -32.0149 -1.03152
lfingers 7.12502
lthumb -5.26313 28.8831
rfemur 7.84796 -0.151111 14.6558
rtibia -18.4356
rfoot -5.79018 -18.7941
rtoes 2.18223
lfemur 5.38999 -3.67289 -12.9361
ltibia -14.6497
lfoot 1.00102 15.4353
ltoes -16.9623
430
root -0.815503 18.285 5.02211 6.83779 1.01364 -0.10536
lowerback 21.2355 2.10708 -2.98491
upperback 3.6053 1.98358 -1.08106
thorax -7.99026 1.01368 -0.0199736
lowerneck -25.9077 -5.10283 -2.82049
upperneck 22.1743 -7.79571 6.19622
head 11.9485 -2.88761 1.40575
rclavicle -8.74653e-015 1.63003e-014
rhumerus 14.8925 22.9217 -83.7323
rradius 50.3031
rwrist -37.5213
rhand -8.7681 -70.4179
rfingers 7.12502
rthumb 17.1697 459.679
lclavicle -8.74653e-015 1.63003e-014
lhumerus 7.48399 -29.042 94.951
lradius 64.8383
lwrist 71.8489
lhand -31.2974 -1.25209
lfingers 7.12502
lthumb -4.57029 28.6786
rfemur 7.8428 -0.0172612 14.5558
rtibia -18.1961
rfoot -6.01485 -18.6188
rtoes 2.25272
lfemur 5.38366 -3.68411 -13.0383
ltibia -14.2189
lfoot 0.674502 15.5135
ltoes -16.8496
